<mxfile host="app.diagrams.net" modified="2023-11-02T12:22:34.985Z" agent="Mozilla/5.0 (Windows NT 10.0; Win64; x64) AppleWebKit/537.36 (KHTML, like Gecko) Chrome/118.0.0.0 Safari/537.36 Edg/118.0.2088.76" etag="AtcoapreNdJ7jFXIvpMA" version="22.0.8" type="device">
  <diagram id="C5RBs43oDa-KdzZeNtuy" name="Page-1">
    <mxGraphModel dx="1750" dy="1018" grid="0" gridSize="10" guides="1" tooltips="1" connect="1" arrows="1" fold="1" page="0" pageScale="1" pageWidth="827" pageHeight="1169" math="0" shadow="0">
      <root>
        <mxCell id="WIyWlLk6GJQsqaUBKTNV-0" />
        <mxCell id="WIyWlLk6GJQsqaUBKTNV-1" parent="WIyWlLk6GJQsqaUBKTNV-0" />
        <mxCell id="K_NiGyLxa0nPM3x3cjXr-13" value="" style="edgeStyle=orthogonalEdgeStyle;rounded=0;orthogonalLoop=1;jettySize=auto;html=1;" edge="1" parent="WIyWlLk6GJQsqaUBKTNV-1" source="cb7tX4b1F28cx7kRI4-A-1" target="K_NiGyLxa0nPM3x3cjXr-12">
          <mxGeometry relative="1" as="geometry" />
        </mxCell>
        <mxCell id="cb7tX4b1F28cx7kRI4-A-1" value="Начало" style="strokeWidth=2;html=1;shape=mxgraph.flowchart.terminator;whiteSpace=wrap;" parent="WIyWlLk6GJQsqaUBKTNV-1" vertex="1">
          <mxGeometry x="70" y="30" width="120" height="40" as="geometry" />
        </mxCell>
        <mxCell id="K_NiGyLxa0nPM3x3cjXr-5" value="" style="edgeStyle=orthogonalEdgeStyle;rounded=0;orthogonalLoop=1;jettySize=auto;html=1;" edge="1" parent="WIyWlLk6GJQsqaUBKTNV-1" source="K_NiGyLxa0nPM3x3cjXr-0" target="K_NiGyLxa0nPM3x3cjXr-4">
          <mxGeometry relative="1" as="geometry" />
        </mxCell>
        <mxCell id="K_NiGyLxa0nPM3x3cjXr-0" value="Вывод условия&amp;nbsp; &amp;nbsp; программы" style="shape=parallelogram;perimeter=parallelogramPerimeter;whiteSpace=wrap;html=1;fixedSize=1;" vertex="1" parent="WIyWlLk6GJQsqaUBKTNV-1">
          <mxGeometry x="60" y="260" width="140" height="60" as="geometry" />
        </mxCell>
        <mxCell id="K_NiGyLxa0nPM3x3cjXr-7" value="" style="edgeStyle=orthogonalEdgeStyle;rounded=0;orthogonalLoop=1;jettySize=auto;html=1;" edge="1" parent="WIyWlLk6GJQsqaUBKTNV-1" source="K_NiGyLxa0nPM3x3cjXr-4" target="K_NiGyLxa0nPM3x3cjXr-6">
          <mxGeometry relative="1" as="geometry" />
        </mxCell>
        <mxCell id="K_NiGyLxa0nPM3x3cjXr-4" value="Вывод&amp;nbsp; &amp;nbsp; &quot;Введите номер от 1 до 4&quot;" style="shape=parallelogram;perimeter=parallelogramPerimeter;whiteSpace=wrap;html=1;fixedSize=1;" vertex="1" parent="WIyWlLk6GJQsqaUBKTNV-1">
          <mxGeometry x="60" y="340" width="140" height="60" as="geometry" />
        </mxCell>
        <mxCell id="K_NiGyLxa0nPM3x3cjXr-19" value="" style="edgeStyle=orthogonalEdgeStyle;rounded=0;orthogonalLoop=1;jettySize=auto;html=1;" edge="1" parent="WIyWlLk6GJQsqaUBKTNV-1" source="K_NiGyLxa0nPM3x3cjXr-6" target="K_NiGyLxa0nPM3x3cjXr-18">
          <mxGeometry relative="1" as="geometry" />
        </mxCell>
        <mxCell id="K_NiGyLxa0nPM3x3cjXr-6" value="Ввод n" style="shape=parallelogram;perimeter=parallelogramPerimeter;whiteSpace=wrap;html=1;fixedSize=1;" vertex="1" parent="WIyWlLk6GJQsqaUBKTNV-1">
          <mxGeometry x="60" y="420" width="140" height="30" as="geometry" />
        </mxCell>
        <mxCell id="K_NiGyLxa0nPM3x3cjXr-45" style="edgeStyle=orthogonalEdgeStyle;rounded=0;orthogonalLoop=1;jettySize=auto;html=1;entryX=0.5;entryY=0;entryDx=0;entryDy=0;" edge="1" parent="WIyWlLk6GJQsqaUBKTNV-1" source="K_NiGyLxa0nPM3x3cjXr-12" target="K_NiGyLxa0nPM3x3cjXr-15">
          <mxGeometry relative="1" as="geometry" />
        </mxCell>
        <mxCell id="K_NiGyLxa0nPM3x3cjXr-12" value="n=0" style="rounded=0;whiteSpace=wrap;html=1;" vertex="1" parent="WIyWlLk6GJQsqaUBKTNV-1">
          <mxGeometry x="70" y="90" width="120" height="30" as="geometry" />
        </mxCell>
        <mxCell id="K_NiGyLxa0nPM3x3cjXr-17" style="edgeStyle=orthogonalEdgeStyle;rounded=0;orthogonalLoop=1;jettySize=auto;html=1;entryX=0.5;entryY=0;entryDx=0;entryDy=0;" edge="1" parent="WIyWlLk6GJQsqaUBKTNV-1" source="K_NiGyLxa0nPM3x3cjXr-15" target="K_NiGyLxa0nPM3x3cjXr-0">
          <mxGeometry relative="1" as="geometry" />
        </mxCell>
        <mxCell id="K_NiGyLxa0nPM3x3cjXr-28" value="Нет" style="edgeLabel;html=1;align=center;verticalAlign=middle;resizable=0;points=[];" vertex="1" connectable="0" parent="K_NiGyLxa0nPM3x3cjXr-17">
          <mxGeometry x="0.5707" y="1" relative="1" as="geometry">
            <mxPoint x="19" as="offset" />
          </mxGeometry>
        </mxCell>
        <mxCell id="K_NiGyLxa0nPM3x3cjXr-15" value="n=4?" style="rhombus;whiteSpace=wrap;html=1;rounded=0;" vertex="1" parent="WIyWlLk6GJQsqaUBKTNV-1">
          <mxGeometry x="70" y="180" width="120" height="60" as="geometry" />
        </mxCell>
        <mxCell id="K_NiGyLxa0nPM3x3cjXr-21" value="" style="edgeStyle=orthogonalEdgeStyle;rounded=0;orthogonalLoop=1;jettySize=auto;html=1;" edge="1" parent="WIyWlLk6GJQsqaUBKTNV-1" source="K_NiGyLxa0nPM3x3cjXr-18" target="K_NiGyLxa0nPM3x3cjXr-20">
          <mxGeometry relative="1" as="geometry" />
        </mxCell>
        <mxCell id="K_NiGyLxa0nPM3x3cjXr-143" value="Нет" style="edgeLabel;html=1;align=center;verticalAlign=middle;resizable=0;points=[];" vertex="1" connectable="0" parent="K_NiGyLxa0nPM3x3cjXr-21">
          <mxGeometry x="0.5476" relative="1" as="geometry">
            <mxPoint x="-14" as="offset" />
          </mxGeometry>
        </mxCell>
        <mxCell id="K_NiGyLxa0nPM3x3cjXr-37" value="" style="edgeStyle=orthogonalEdgeStyle;rounded=0;orthogonalLoop=1;jettySize=auto;html=1;" edge="1" parent="WIyWlLk6GJQsqaUBKTNV-1" source="K_NiGyLxa0nPM3x3cjXr-18" target="K_NiGyLxa0nPM3x3cjXr-36">
          <mxGeometry relative="1" as="geometry" />
        </mxCell>
        <mxCell id="K_NiGyLxa0nPM3x3cjXr-142" value="Да" style="edgeLabel;html=1;align=center;verticalAlign=middle;resizable=0;points=[];" vertex="1" connectable="0" parent="K_NiGyLxa0nPM3x3cjXr-37">
          <mxGeometry x="-0.8286" y="4" relative="1" as="geometry">
            <mxPoint x="3" y="-10" as="offset" />
          </mxGeometry>
        </mxCell>
        <mxCell id="K_NiGyLxa0nPM3x3cjXr-18" value="n=1?" style="rhombus;whiteSpace=wrap;html=1;" vertex="1" parent="WIyWlLk6GJQsqaUBKTNV-1">
          <mxGeometry x="70" y="470" width="120" height="60" as="geometry" />
        </mxCell>
        <mxCell id="K_NiGyLxa0nPM3x3cjXr-23" value="" style="edgeStyle=orthogonalEdgeStyle;rounded=0;orthogonalLoop=1;jettySize=auto;html=1;" edge="1" parent="WIyWlLk6GJQsqaUBKTNV-1" source="K_NiGyLxa0nPM3x3cjXr-20" target="K_NiGyLxa0nPM3x3cjXr-22">
          <mxGeometry relative="1" as="geometry" />
        </mxCell>
        <mxCell id="K_NiGyLxa0nPM3x3cjXr-144" value="Нет" style="edgeLabel;html=1;align=center;verticalAlign=middle;resizable=0;points=[];" vertex="1" connectable="0" parent="K_NiGyLxa0nPM3x3cjXr-23">
          <mxGeometry x="0.5476" y="-1" relative="1" as="geometry">
            <mxPoint x="-12" y="-1" as="offset" />
          </mxGeometry>
        </mxCell>
        <mxCell id="K_NiGyLxa0nPM3x3cjXr-39" value="" style="edgeStyle=orthogonalEdgeStyle;rounded=0;orthogonalLoop=1;jettySize=auto;html=1;" edge="1" parent="WIyWlLk6GJQsqaUBKTNV-1" source="K_NiGyLxa0nPM3x3cjXr-20" target="K_NiGyLxa0nPM3x3cjXr-38">
          <mxGeometry relative="1" as="geometry" />
        </mxCell>
        <mxCell id="K_NiGyLxa0nPM3x3cjXr-141" value="Да" style="edgeLabel;html=1;align=center;verticalAlign=middle;resizable=0;points=[];" vertex="1" connectable="0" parent="K_NiGyLxa0nPM3x3cjXr-39">
          <mxGeometry x="-0.6571" y="4" relative="1" as="geometry">
            <mxPoint x="-2" y="-8" as="offset" />
          </mxGeometry>
        </mxCell>
        <mxCell id="K_NiGyLxa0nPM3x3cjXr-20" value="n=2?" style="rhombus;whiteSpace=wrap;html=1;" vertex="1" parent="WIyWlLk6GJQsqaUBKTNV-1">
          <mxGeometry x="70" y="550" width="120" height="60" as="geometry" />
        </mxCell>
        <mxCell id="K_NiGyLxa0nPM3x3cjXr-25" value="" style="edgeStyle=orthogonalEdgeStyle;rounded=0;orthogonalLoop=1;jettySize=auto;html=1;" edge="1" parent="WIyWlLk6GJQsqaUBKTNV-1" source="K_NiGyLxa0nPM3x3cjXr-22" target="K_NiGyLxa0nPM3x3cjXr-24">
          <mxGeometry relative="1" as="geometry" />
        </mxCell>
        <mxCell id="K_NiGyLxa0nPM3x3cjXr-145" value="Нет" style="edgeLabel;html=1;align=center;verticalAlign=middle;resizable=0;points=[];" vertex="1" connectable="0" parent="K_NiGyLxa0nPM3x3cjXr-25">
          <mxGeometry x="0.5" y="-1" relative="1" as="geometry">
            <mxPoint x="-12" y="-1" as="offset" />
          </mxGeometry>
        </mxCell>
        <mxCell id="K_NiGyLxa0nPM3x3cjXr-41" value="" style="edgeStyle=orthogonalEdgeStyle;rounded=0;orthogonalLoop=1;jettySize=auto;html=1;" edge="1" parent="WIyWlLk6GJQsqaUBKTNV-1" source="K_NiGyLxa0nPM3x3cjXr-22" target="K_NiGyLxa0nPM3x3cjXr-40">
          <mxGeometry relative="1" as="geometry" />
        </mxCell>
        <mxCell id="K_NiGyLxa0nPM3x3cjXr-22" value="n=3?" style="rhombus;whiteSpace=wrap;html=1;" vertex="1" parent="WIyWlLk6GJQsqaUBKTNV-1">
          <mxGeometry x="70" y="630" width="120" height="60" as="geometry" />
        </mxCell>
        <mxCell id="K_NiGyLxa0nPM3x3cjXr-30" value="" style="edgeStyle=orthogonalEdgeStyle;rounded=0;orthogonalLoop=1;jettySize=auto;html=1;entryX=0;entryY=0.5;entryDx=0;entryDy=0;" edge="1" parent="WIyWlLk6GJQsqaUBKTNV-1" source="K_NiGyLxa0nPM3x3cjXr-24" target="K_NiGyLxa0nPM3x3cjXr-31">
          <mxGeometry relative="1" as="geometry">
            <mxPoint x="220" y="745" as="targetPoint" />
          </mxGeometry>
        </mxCell>
        <mxCell id="K_NiGyLxa0nPM3x3cjXr-139" value="Да" style="edgeLabel;html=1;align=center;verticalAlign=middle;resizable=0;points=[];" vertex="1" connectable="0" parent="K_NiGyLxa0nPM3x3cjXr-30">
          <mxGeometry x="0.3426" y="2" relative="1" as="geometry">
            <mxPoint x="-2" y="-10" as="offset" />
          </mxGeometry>
        </mxCell>
        <mxCell id="K_NiGyLxa0nPM3x3cjXr-147" value="" style="edgeStyle=orthogonalEdgeStyle;rounded=0;orthogonalLoop=1;jettySize=auto;html=1;" edge="1" parent="WIyWlLk6GJQsqaUBKTNV-1" source="K_NiGyLxa0nPM3x3cjXr-24" target="K_NiGyLxa0nPM3x3cjXr-146">
          <mxGeometry relative="1" as="geometry" />
        </mxCell>
        <mxCell id="K_NiGyLxa0nPM3x3cjXr-24" value="n=4?" style="rhombus;whiteSpace=wrap;html=1;" vertex="1" parent="WIyWlLk6GJQsqaUBKTNV-1">
          <mxGeometry x="70" y="710" width="120" height="70" as="geometry" />
        </mxCell>
        <mxCell id="K_NiGyLxa0nPM3x3cjXr-31" value="Вывод &quot;Программа завершена&quot;" style="shape=parallelogram;perimeter=parallelogramPerimeter;whiteSpace=wrap;html=1;fixedSize=1;" vertex="1" parent="WIyWlLk6GJQsqaUBKTNV-1">
          <mxGeometry x="210" y="725" width="140" height="40" as="geometry" />
        </mxCell>
        <mxCell id="K_NiGyLxa0nPM3x3cjXr-35" style="edgeStyle=orthogonalEdgeStyle;rounded=0;orthogonalLoop=1;jettySize=auto;html=1;" edge="1" parent="WIyWlLk6GJQsqaUBKTNV-1" source="K_NiGyLxa0nPM3x3cjXr-33">
          <mxGeometry relative="1" as="geometry">
            <mxPoint x="130" y="155" as="targetPoint" />
          </mxGeometry>
        </mxCell>
        <mxCell id="K_NiGyLxa0nPM3x3cjXr-33" value="4" style="ellipse;whiteSpace=wrap;html=1;aspect=fixed;" vertex="1" parent="WIyWlLk6GJQsqaUBKTNV-1">
          <mxGeometry x="210" y="130" width="50" height="50" as="geometry" />
        </mxCell>
        <mxCell id="K_NiGyLxa0nPM3x3cjXr-36" value="1" style="ellipse;whiteSpace=wrap;html=1;" vertex="1" parent="WIyWlLk6GJQsqaUBKTNV-1">
          <mxGeometry x="220" y="475" width="50" height="50" as="geometry" />
        </mxCell>
        <mxCell id="K_NiGyLxa0nPM3x3cjXr-38" value="2" style="ellipse;whiteSpace=wrap;html=1;" vertex="1" parent="WIyWlLk6GJQsqaUBKTNV-1">
          <mxGeometry x="220" y="555" width="50" height="50" as="geometry" />
        </mxCell>
        <mxCell id="K_NiGyLxa0nPM3x3cjXr-40" value="3" style="ellipse;whiteSpace=wrap;html=1;" vertex="1" parent="WIyWlLk6GJQsqaUBKTNV-1">
          <mxGeometry x="220" y="635" width="50" height="50" as="geometry" />
        </mxCell>
        <mxCell id="K_NiGyLxa0nPM3x3cjXr-42" value="Конец" style="strokeWidth=2;html=1;shape=mxgraph.flowchart.terminator;whiteSpace=wrap;" vertex="1" parent="WIyWlLk6GJQsqaUBKTNV-1">
          <mxGeometry x="294" y="190" width="120" height="40" as="geometry" />
        </mxCell>
        <mxCell id="K_NiGyLxa0nPM3x3cjXr-43" style="edgeStyle=orthogonalEdgeStyle;rounded=0;orthogonalLoop=1;jettySize=auto;html=1;entryX=0;entryY=0.5;entryDx=0;entryDy=0;entryPerimeter=0;" edge="1" parent="WIyWlLk6GJQsqaUBKTNV-1" source="K_NiGyLxa0nPM3x3cjXr-15" target="K_NiGyLxa0nPM3x3cjXr-42">
          <mxGeometry relative="1" as="geometry" />
        </mxCell>
        <mxCell id="K_NiGyLxa0nPM3x3cjXr-44" style="edgeStyle=orthogonalEdgeStyle;rounded=0;orthogonalLoop=1;jettySize=auto;html=1;entryX=0.5;entryY=1;entryDx=0;entryDy=0;entryPerimeter=0;" edge="1" parent="WIyWlLk6GJQsqaUBKTNV-1" source="K_NiGyLxa0nPM3x3cjXr-31" target="K_NiGyLxa0nPM3x3cjXr-42">
          <mxGeometry relative="1" as="geometry">
            <Array as="points">
              <mxPoint x="354" y="745" />
            </Array>
          </mxGeometry>
        </mxCell>
        <mxCell id="K_NiGyLxa0nPM3x3cjXr-48" style="edgeStyle=orthogonalEdgeStyle;rounded=0;orthogonalLoop=1;jettySize=auto;html=1;" edge="1" parent="WIyWlLk6GJQsqaUBKTNV-1" source="K_NiGyLxa0nPM3x3cjXr-46" target="K_NiGyLxa0nPM3x3cjXr-47">
          <mxGeometry relative="1" as="geometry" />
        </mxCell>
        <mxCell id="K_NiGyLxa0nPM3x3cjXr-46" value="1" style="ellipse;whiteSpace=wrap;html=1;aspect=fixed;" vertex="1" parent="WIyWlLk6GJQsqaUBKTNV-1">
          <mxGeometry x="500" y="20" width="50" height="50" as="geometry" />
        </mxCell>
        <mxCell id="K_NiGyLxa0nPM3x3cjXr-50" value="" style="edgeStyle=orthogonalEdgeStyle;rounded=0;orthogonalLoop=1;jettySize=auto;html=1;" edge="1" parent="WIyWlLk6GJQsqaUBKTNV-1" source="K_NiGyLxa0nPM3x3cjXr-47" target="K_NiGyLxa0nPM3x3cjXr-49">
          <mxGeometry relative="1" as="geometry" />
        </mxCell>
        <mxCell id="K_NiGyLxa0nPM3x3cjXr-47" value="Вывод &quot;Введите количество символов&quot;" style="shape=parallelogram;perimeter=parallelogramPerimeter;whiteSpace=wrap;html=1;fixedSize=1;" vertex="1" parent="WIyWlLk6GJQsqaUBKTNV-1">
          <mxGeometry x="455" y="90" width="140" height="50" as="geometry" />
        </mxCell>
        <mxCell id="K_NiGyLxa0nPM3x3cjXr-52" value="" style="edgeStyle=orthogonalEdgeStyle;rounded=0;orthogonalLoop=1;jettySize=auto;html=1;" edge="1" parent="WIyWlLk6GJQsqaUBKTNV-1" source="K_NiGyLxa0nPM3x3cjXr-49" target="K_NiGyLxa0nPM3x3cjXr-51">
          <mxGeometry relative="1" as="geometry" />
        </mxCell>
        <mxCell id="K_NiGyLxa0nPM3x3cjXr-49" value="Ввод u" style="shape=parallelogram;perimeter=parallelogramPerimeter;whiteSpace=wrap;html=1;fixedSize=1;" vertex="1" parent="WIyWlLk6GJQsqaUBKTNV-1">
          <mxGeometry x="460" y="160" width="130" height="50" as="geometry" />
        </mxCell>
        <mxCell id="K_NiGyLxa0nPM3x3cjXr-54" value="" style="edgeStyle=orthogonalEdgeStyle;rounded=0;orthogonalLoop=1;jettySize=auto;html=1;" edge="1" parent="WIyWlLk6GJQsqaUBKTNV-1" source="K_NiGyLxa0nPM3x3cjXr-51" target="K_NiGyLxa0nPM3x3cjXr-53">
          <mxGeometry relative="1" as="geometry" />
        </mxCell>
        <mxCell id="K_NiGyLxa0nPM3x3cjXr-75" value="Да" style="edgeLabel;html=1;align=center;verticalAlign=middle;resizable=0;points=[];" vertex="1" connectable="0" parent="K_NiGyLxa0nPM3x3cjXr-54">
          <mxGeometry x="0.66" y="1" relative="1" as="geometry">
            <mxPoint x="14" as="offset" />
          </mxGeometry>
        </mxCell>
        <mxCell id="K_NiGyLxa0nPM3x3cjXr-73" value="" style="edgeStyle=orthogonalEdgeStyle;rounded=0;orthogonalLoop=1;jettySize=auto;html=1;" edge="1" parent="WIyWlLk6GJQsqaUBKTNV-1" source="K_NiGyLxa0nPM3x3cjXr-51" target="K_NiGyLxa0nPM3x3cjXr-72">
          <mxGeometry relative="1" as="geometry" />
        </mxCell>
        <mxCell id="K_NiGyLxa0nPM3x3cjXr-74" value="Нет" style="edgeLabel;html=1;align=center;verticalAlign=middle;resizable=0;points=[];" vertex="1" connectable="0" parent="K_NiGyLxa0nPM3x3cjXr-73">
          <mxGeometry x="-0.71" y="1" relative="1" as="geometry">
            <mxPoint x="4" y="-9" as="offset" />
          </mxGeometry>
        </mxCell>
        <mxCell id="K_NiGyLxa0nPM3x3cjXr-51" value="i=1,i&amp;lt;(u+1)?" style="rhombus;whiteSpace=wrap;html=1;" vertex="1" parent="WIyWlLk6GJQsqaUBKTNV-1">
          <mxGeometry x="460" y="230" width="130" height="60" as="geometry" />
        </mxCell>
        <mxCell id="K_NiGyLxa0nPM3x3cjXr-56" value="" style="edgeStyle=orthogonalEdgeStyle;rounded=0;orthogonalLoop=1;jettySize=auto;html=1;" edge="1" parent="WIyWlLk6GJQsqaUBKTNV-1" source="K_NiGyLxa0nPM3x3cjXr-53" target="K_NiGyLxa0nPM3x3cjXr-55">
          <mxGeometry relative="1" as="geometry" />
        </mxCell>
        <mxCell id="K_NiGyLxa0nPM3x3cjXr-53" value="Вывод &quot;Введите букву латинского алфавита&quot;" style="shape=parallelogram;perimeter=parallelogramPerimeter;whiteSpace=wrap;html=1;fixedSize=1;" vertex="1" parent="WIyWlLk6GJQsqaUBKTNV-1">
          <mxGeometry x="450" y="310" width="150" height="50" as="geometry" />
        </mxCell>
        <mxCell id="K_NiGyLxa0nPM3x3cjXr-58" value="" style="edgeStyle=orthogonalEdgeStyle;rounded=0;orthogonalLoop=1;jettySize=auto;html=1;" edge="1" parent="WIyWlLk6GJQsqaUBKTNV-1" source="K_NiGyLxa0nPM3x3cjXr-55" target="K_NiGyLxa0nPM3x3cjXr-57">
          <mxGeometry relative="1" as="geometry" />
        </mxCell>
        <mxCell id="K_NiGyLxa0nPM3x3cjXr-55" value="Ввод Letter" style="shape=parallelogram;perimeter=parallelogramPerimeter;whiteSpace=wrap;html=1;fixedSize=1;" vertex="1" parent="WIyWlLk6GJQsqaUBKTNV-1">
          <mxGeometry x="450" y="380" width="150" height="50" as="geometry" />
        </mxCell>
        <mxCell id="K_NiGyLxa0nPM3x3cjXr-60" value="" style="edgeStyle=orthogonalEdgeStyle;rounded=0;orthogonalLoop=1;jettySize=auto;html=1;" edge="1" parent="WIyWlLk6GJQsqaUBKTNV-1" source="K_NiGyLxa0nPM3x3cjXr-57" target="K_NiGyLxa0nPM3x3cjXr-59">
          <mxGeometry relative="1" as="geometry" />
        </mxCell>
        <mxCell id="K_NiGyLxa0nPM3x3cjXr-61" value="Да" style="edgeLabel;html=1;align=center;verticalAlign=middle;resizable=0;points=[];" vertex="1" connectable="0" parent="K_NiGyLxa0nPM3x3cjXr-60">
          <mxGeometry x="0.544" y="5" relative="1" as="geometry">
            <mxPoint x="10" as="offset" />
          </mxGeometry>
        </mxCell>
        <mxCell id="K_NiGyLxa0nPM3x3cjXr-68" value="" style="edgeStyle=orthogonalEdgeStyle;rounded=0;orthogonalLoop=1;jettySize=auto;html=1;" edge="1" parent="WIyWlLk6GJQsqaUBKTNV-1" source="K_NiGyLxa0nPM3x3cjXr-57" target="K_NiGyLxa0nPM3x3cjXr-67">
          <mxGeometry relative="1" as="geometry" />
        </mxCell>
        <mxCell id="K_NiGyLxa0nPM3x3cjXr-136" value="Нет" style="edgeLabel;html=1;align=center;verticalAlign=middle;resizable=0;points=[];" vertex="1" connectable="0" parent="K_NiGyLxa0nPM3x3cjXr-68">
          <mxGeometry x="-0.8" relative="1" as="geometry">
            <mxPoint x="-1" y="-12" as="offset" />
          </mxGeometry>
        </mxCell>
        <mxCell id="K_NiGyLxa0nPM3x3cjXr-57" value="&#39;A&#39;&amp;lt;=Letter&amp;lt;=&#39;z&#39;?" style="rhombus;whiteSpace=wrap;html=1;" vertex="1" parent="WIyWlLk6GJQsqaUBKTNV-1">
          <mxGeometry x="460" y="460" width="130" height="70" as="geometry" />
        </mxCell>
        <mxCell id="K_NiGyLxa0nPM3x3cjXr-63" value="" style="edgeStyle=orthogonalEdgeStyle;rounded=0;orthogonalLoop=1;jettySize=auto;html=1;" edge="1" parent="WIyWlLk6GJQsqaUBKTNV-1" source="K_NiGyLxa0nPM3x3cjXr-59" target="K_NiGyLxa0nPM3x3cjXr-62">
          <mxGeometry relative="1" as="geometry" />
        </mxCell>
        <mxCell id="K_NiGyLxa0nPM3x3cjXr-59" value="remainder= tolower(Letter) - toupper(Letter);" style="whiteSpace=wrap;html=1;" vertex="1" parent="WIyWlLk6GJQsqaUBKTNV-1">
          <mxGeometry x="465" y="550" width="120" height="50" as="geometry" />
        </mxCell>
        <mxCell id="K_NiGyLxa0nPM3x3cjXr-65" value="" style="edgeStyle=orthogonalEdgeStyle;rounded=0;orthogonalLoop=1;jettySize=auto;html=1;" edge="1" parent="WIyWlLk6GJQsqaUBKTNV-1" source="K_NiGyLxa0nPM3x3cjXr-62" target="K_NiGyLxa0nPM3x3cjXr-64">
          <mxGeometry relative="1" as="geometry" />
        </mxCell>
        <mxCell id="K_NiGyLxa0nPM3x3cjXr-62" value="Вывод remainder" style="shape=parallelogram;perimeter=parallelogramPerimeter;whiteSpace=wrap;html=1;fixedSize=1;" vertex="1" parent="WIyWlLk6GJQsqaUBKTNV-1">
          <mxGeometry x="465" y="620" width="120" height="40" as="geometry" />
        </mxCell>
        <mxCell id="K_NiGyLxa0nPM3x3cjXr-66" style="edgeStyle=orthogonalEdgeStyle;rounded=0;orthogonalLoop=1;jettySize=auto;html=1;entryX=0;entryY=0.5;entryDx=0;entryDy=0;" edge="1" parent="WIyWlLk6GJQsqaUBKTNV-1" source="K_NiGyLxa0nPM3x3cjXr-64" target="K_NiGyLxa0nPM3x3cjXr-51">
          <mxGeometry relative="1" as="geometry">
            <Array as="points">
              <mxPoint x="440" y="705" />
              <mxPoint x="440" y="260" />
            </Array>
          </mxGeometry>
        </mxCell>
        <mxCell id="K_NiGyLxa0nPM3x3cjXr-64" value="i++" style="whiteSpace=wrap;html=1;" vertex="1" parent="WIyWlLk6GJQsqaUBKTNV-1">
          <mxGeometry x="465" y="690" width="120" height="30" as="geometry" />
        </mxCell>
        <mxCell id="K_NiGyLxa0nPM3x3cjXr-71" style="edgeStyle=orthogonalEdgeStyle;rounded=0;orthogonalLoop=1;jettySize=auto;html=1;entryX=1;entryY=0.5;entryDx=0;entryDy=0;" edge="1" parent="WIyWlLk6GJQsqaUBKTNV-1" source="K_NiGyLxa0nPM3x3cjXr-67" target="K_NiGyLxa0nPM3x3cjXr-64">
          <mxGeometry relative="1" as="geometry">
            <Array as="points">
              <mxPoint x="700" y="705" />
            </Array>
          </mxGeometry>
        </mxCell>
        <mxCell id="K_NiGyLxa0nPM3x3cjXr-67" value="Вывод&amp;nbsp; &quot;Вы ввели не букву латинского алфавита &quot;" style="shape=parallelogram;perimeter=parallelogramPerimeter;whiteSpace=wrap;html=1;fixedSize=1;" vertex="1" parent="WIyWlLk6GJQsqaUBKTNV-1">
          <mxGeometry x="620" y="465" width="150" height="60" as="geometry" />
        </mxCell>
        <mxCell id="K_NiGyLxa0nPM3x3cjXr-72" value="4" style="ellipse;whiteSpace=wrap;html=1;" vertex="1" parent="WIyWlLk6GJQsqaUBKTNV-1">
          <mxGeometry x="630" y="235" width="50" height="50" as="geometry" />
        </mxCell>
        <mxCell id="K_NiGyLxa0nPM3x3cjXr-76" style="edgeStyle=orthogonalEdgeStyle;rounded=0;orthogonalLoop=1;jettySize=auto;html=1;" edge="1" parent="WIyWlLk6GJQsqaUBKTNV-1" source="K_NiGyLxa0nPM3x3cjXr-77" target="K_NiGyLxa0nPM3x3cjXr-79">
          <mxGeometry relative="1" as="geometry" />
        </mxCell>
        <mxCell id="K_NiGyLxa0nPM3x3cjXr-77" value="2" style="ellipse;whiteSpace=wrap;html=1;aspect=fixed;" vertex="1" parent="WIyWlLk6GJQsqaUBKTNV-1">
          <mxGeometry x="870" y="20" width="50" height="50" as="geometry" />
        </mxCell>
        <mxCell id="K_NiGyLxa0nPM3x3cjXr-78" value="" style="edgeStyle=orthogonalEdgeStyle;rounded=0;orthogonalLoop=1;jettySize=auto;html=1;" edge="1" parent="WIyWlLk6GJQsqaUBKTNV-1" source="K_NiGyLxa0nPM3x3cjXr-79" target="K_NiGyLxa0nPM3x3cjXr-81">
          <mxGeometry relative="1" as="geometry" />
        </mxCell>
        <mxCell id="K_NiGyLxa0nPM3x3cjXr-79" value="Вывод &quot;Введите количество символов&quot;" style="shape=parallelogram;perimeter=parallelogramPerimeter;whiteSpace=wrap;html=1;fixedSize=1;" vertex="1" parent="WIyWlLk6GJQsqaUBKTNV-1">
          <mxGeometry x="825" y="90" width="140" height="50" as="geometry" />
        </mxCell>
        <mxCell id="K_NiGyLxa0nPM3x3cjXr-80" value="" style="edgeStyle=orthogonalEdgeStyle;rounded=0;orthogonalLoop=1;jettySize=auto;html=1;" edge="1" parent="WIyWlLk6GJQsqaUBKTNV-1" source="K_NiGyLxa0nPM3x3cjXr-81" target="K_NiGyLxa0nPM3x3cjXr-86">
          <mxGeometry relative="1" as="geometry" />
        </mxCell>
        <mxCell id="K_NiGyLxa0nPM3x3cjXr-81" value="Ввод u" style="shape=parallelogram;perimeter=parallelogramPerimeter;whiteSpace=wrap;html=1;fixedSize=1;" vertex="1" parent="WIyWlLk6GJQsqaUBKTNV-1">
          <mxGeometry x="830" y="160" width="130" height="50" as="geometry" />
        </mxCell>
        <mxCell id="K_NiGyLxa0nPM3x3cjXr-82" value="" style="edgeStyle=orthogonalEdgeStyle;rounded=0;orthogonalLoop=1;jettySize=auto;html=1;" edge="1" parent="WIyWlLk6GJQsqaUBKTNV-1" source="K_NiGyLxa0nPM3x3cjXr-86" target="K_NiGyLxa0nPM3x3cjXr-88">
          <mxGeometry relative="1" as="geometry" />
        </mxCell>
        <mxCell id="K_NiGyLxa0nPM3x3cjXr-83" value="Да" style="edgeLabel;html=1;align=center;verticalAlign=middle;resizable=0;points=[];" vertex="1" connectable="0" parent="K_NiGyLxa0nPM3x3cjXr-82">
          <mxGeometry x="0.66" y="1" relative="1" as="geometry">
            <mxPoint x="14" as="offset" />
          </mxGeometry>
        </mxCell>
        <mxCell id="K_NiGyLxa0nPM3x3cjXr-84" value="" style="edgeStyle=orthogonalEdgeStyle;rounded=0;orthogonalLoop=1;jettySize=auto;html=1;" edge="1" parent="WIyWlLk6GJQsqaUBKTNV-1" source="K_NiGyLxa0nPM3x3cjXr-86" target="K_NiGyLxa0nPM3x3cjXr-103">
          <mxGeometry relative="1" as="geometry" />
        </mxCell>
        <mxCell id="K_NiGyLxa0nPM3x3cjXr-85" value="Нет" style="edgeLabel;html=1;align=center;verticalAlign=middle;resizable=0;points=[];" vertex="1" connectable="0" parent="K_NiGyLxa0nPM3x3cjXr-84">
          <mxGeometry x="-0.71" y="1" relative="1" as="geometry">
            <mxPoint x="4" y="-9" as="offset" />
          </mxGeometry>
        </mxCell>
        <mxCell id="K_NiGyLxa0nPM3x3cjXr-86" value="i=1,i&amp;lt;(u+1)?" style="rhombus;whiteSpace=wrap;html=1;" vertex="1" parent="WIyWlLk6GJQsqaUBKTNV-1">
          <mxGeometry x="830" y="230" width="130" height="60" as="geometry" />
        </mxCell>
        <mxCell id="K_NiGyLxa0nPM3x3cjXr-87" value="" style="edgeStyle=orthogonalEdgeStyle;rounded=0;orthogonalLoop=1;jettySize=auto;html=1;" edge="1" parent="WIyWlLk6GJQsqaUBKTNV-1" source="K_NiGyLxa0nPM3x3cjXr-88" target="K_NiGyLxa0nPM3x3cjXr-90">
          <mxGeometry relative="1" as="geometry" />
        </mxCell>
        <mxCell id="K_NiGyLxa0nPM3x3cjXr-88" value="Вывод &quot;Введите букву русского алфавита&quot;" style="shape=parallelogram;perimeter=parallelogramPerimeter;whiteSpace=wrap;html=1;fixedSize=1;" vertex="1" parent="WIyWlLk6GJQsqaUBKTNV-1">
          <mxGeometry x="820" y="310" width="150" height="50" as="geometry" />
        </mxCell>
        <mxCell id="K_NiGyLxa0nPM3x3cjXr-89" value="" style="edgeStyle=orthogonalEdgeStyle;rounded=0;orthogonalLoop=1;jettySize=auto;html=1;" edge="1" parent="WIyWlLk6GJQsqaUBKTNV-1" source="K_NiGyLxa0nPM3x3cjXr-90" target="K_NiGyLxa0nPM3x3cjXr-94">
          <mxGeometry relative="1" as="geometry" />
        </mxCell>
        <mxCell id="K_NiGyLxa0nPM3x3cjXr-90" value="Ввод Letter" style="shape=parallelogram;perimeter=parallelogramPerimeter;whiteSpace=wrap;html=1;fixedSize=1;" vertex="1" parent="WIyWlLk6GJQsqaUBKTNV-1">
          <mxGeometry x="820" y="380" width="150" height="50" as="geometry" />
        </mxCell>
        <mxCell id="K_NiGyLxa0nPM3x3cjXr-91" value="" style="edgeStyle=orthogonalEdgeStyle;rounded=0;orthogonalLoop=1;jettySize=auto;html=1;" edge="1" parent="WIyWlLk6GJQsqaUBKTNV-1" source="K_NiGyLxa0nPM3x3cjXr-94" target="K_NiGyLxa0nPM3x3cjXr-96">
          <mxGeometry relative="1" as="geometry" />
        </mxCell>
        <mxCell id="K_NiGyLxa0nPM3x3cjXr-92" value="Да" style="edgeLabel;html=1;align=center;verticalAlign=middle;resizable=0;points=[];" vertex="1" connectable="0" parent="K_NiGyLxa0nPM3x3cjXr-91">
          <mxGeometry x="0.544" y="5" relative="1" as="geometry">
            <mxPoint x="10" as="offset" />
          </mxGeometry>
        </mxCell>
        <mxCell id="K_NiGyLxa0nPM3x3cjXr-93" value="" style="edgeStyle=orthogonalEdgeStyle;rounded=0;orthogonalLoop=1;jettySize=auto;html=1;" edge="1" parent="WIyWlLk6GJQsqaUBKTNV-1" source="K_NiGyLxa0nPM3x3cjXr-94" target="K_NiGyLxa0nPM3x3cjXr-102">
          <mxGeometry relative="1" as="geometry" />
        </mxCell>
        <mxCell id="K_NiGyLxa0nPM3x3cjXr-137" value="Нет" style="edgeLabel;html=1;align=center;verticalAlign=middle;resizable=0;points=[];" vertex="1" connectable="0" parent="K_NiGyLxa0nPM3x3cjXr-93">
          <mxGeometry x="-0.8" relative="1" as="geometry">
            <mxPoint x="4" y="-9" as="offset" />
          </mxGeometry>
        </mxCell>
        <mxCell id="K_NiGyLxa0nPM3x3cjXr-94" value="&#39;A&#39;&amp;lt;=Letter&amp;lt;=&#39;я&#39;?" style="rhombus;whiteSpace=wrap;html=1;" vertex="1" parent="WIyWlLk6GJQsqaUBKTNV-1">
          <mxGeometry x="830" y="460" width="130" height="70" as="geometry" />
        </mxCell>
        <mxCell id="K_NiGyLxa0nPM3x3cjXr-95" value="" style="edgeStyle=orthogonalEdgeStyle;rounded=0;orthogonalLoop=1;jettySize=auto;html=1;" edge="1" parent="WIyWlLk6GJQsqaUBKTNV-1" source="K_NiGyLxa0nPM3x3cjXr-96" target="K_NiGyLxa0nPM3x3cjXr-98">
          <mxGeometry relative="1" as="geometry" />
        </mxCell>
        <mxCell id="K_NiGyLxa0nPM3x3cjXr-96" value="remainder= tolower(Letter) - toupper(Letter);" style="whiteSpace=wrap;html=1;" vertex="1" parent="WIyWlLk6GJQsqaUBKTNV-1">
          <mxGeometry x="835" y="550" width="120" height="50" as="geometry" />
        </mxCell>
        <mxCell id="K_NiGyLxa0nPM3x3cjXr-97" value="" style="edgeStyle=orthogonalEdgeStyle;rounded=0;orthogonalLoop=1;jettySize=auto;html=1;" edge="1" parent="WIyWlLk6GJQsqaUBKTNV-1" source="K_NiGyLxa0nPM3x3cjXr-98" target="K_NiGyLxa0nPM3x3cjXr-100">
          <mxGeometry relative="1" as="geometry" />
        </mxCell>
        <mxCell id="K_NiGyLxa0nPM3x3cjXr-98" value="Вывод remainder" style="shape=parallelogram;perimeter=parallelogramPerimeter;whiteSpace=wrap;html=1;fixedSize=1;" vertex="1" parent="WIyWlLk6GJQsqaUBKTNV-1">
          <mxGeometry x="835" y="620" width="120" height="40" as="geometry" />
        </mxCell>
        <mxCell id="K_NiGyLxa0nPM3x3cjXr-99" style="edgeStyle=orthogonalEdgeStyle;rounded=0;orthogonalLoop=1;jettySize=auto;html=1;entryX=0;entryY=0.5;entryDx=0;entryDy=0;" edge="1" parent="WIyWlLk6GJQsqaUBKTNV-1" source="K_NiGyLxa0nPM3x3cjXr-100" target="K_NiGyLxa0nPM3x3cjXr-86">
          <mxGeometry relative="1" as="geometry">
            <Array as="points">
              <mxPoint x="810" y="705" />
              <mxPoint x="810" y="260" />
            </Array>
          </mxGeometry>
        </mxCell>
        <mxCell id="K_NiGyLxa0nPM3x3cjXr-100" value="i++" style="whiteSpace=wrap;html=1;" vertex="1" parent="WIyWlLk6GJQsqaUBKTNV-1">
          <mxGeometry x="835" y="690" width="120" height="30" as="geometry" />
        </mxCell>
        <mxCell id="K_NiGyLxa0nPM3x3cjXr-101" style="edgeStyle=orthogonalEdgeStyle;rounded=0;orthogonalLoop=1;jettySize=auto;html=1;entryX=1;entryY=0.5;entryDx=0;entryDy=0;" edge="1" parent="WIyWlLk6GJQsqaUBKTNV-1" source="K_NiGyLxa0nPM3x3cjXr-102" target="K_NiGyLxa0nPM3x3cjXr-100">
          <mxGeometry relative="1" as="geometry">
            <Array as="points">
              <mxPoint x="1070" y="705" />
            </Array>
          </mxGeometry>
        </mxCell>
        <mxCell id="K_NiGyLxa0nPM3x3cjXr-102" value="Вывод&amp;nbsp; &quot;Вы ввели не букву русского&amp;nbsp; &amp;nbsp; алфавита &quot;" style="shape=parallelogram;perimeter=parallelogramPerimeter;whiteSpace=wrap;html=1;fixedSize=1;" vertex="1" parent="WIyWlLk6GJQsqaUBKTNV-1">
          <mxGeometry x="990" y="465" width="150" height="60" as="geometry" />
        </mxCell>
        <mxCell id="K_NiGyLxa0nPM3x3cjXr-103" value="4" style="ellipse;whiteSpace=wrap;html=1;" vertex="1" parent="WIyWlLk6GJQsqaUBKTNV-1">
          <mxGeometry x="1000" y="235" width="50" height="50" as="geometry" />
        </mxCell>
        <mxCell id="K_NiGyLxa0nPM3x3cjXr-104" style="edgeStyle=orthogonalEdgeStyle;rounded=0;orthogonalLoop=1;jettySize=auto;html=1;" edge="1" parent="WIyWlLk6GJQsqaUBKTNV-1" source="K_NiGyLxa0nPM3x3cjXr-105" target="K_NiGyLxa0nPM3x3cjXr-107">
          <mxGeometry relative="1" as="geometry" />
        </mxCell>
        <mxCell id="K_NiGyLxa0nPM3x3cjXr-105" value="3" style="ellipse;whiteSpace=wrap;html=1;aspect=fixed;" vertex="1" parent="WIyWlLk6GJQsqaUBKTNV-1">
          <mxGeometry x="1220" y="20" width="50" height="50" as="geometry" />
        </mxCell>
        <mxCell id="K_NiGyLxa0nPM3x3cjXr-106" value="" style="edgeStyle=orthogonalEdgeStyle;rounded=0;orthogonalLoop=1;jettySize=auto;html=1;" edge="1" parent="WIyWlLk6GJQsqaUBKTNV-1" source="K_NiGyLxa0nPM3x3cjXr-107" target="K_NiGyLxa0nPM3x3cjXr-109">
          <mxGeometry relative="1" as="geometry" />
        </mxCell>
        <mxCell id="K_NiGyLxa0nPM3x3cjXr-107" value="Вывод &quot;Введите количество символов&quot;" style="shape=parallelogram;perimeter=parallelogramPerimeter;whiteSpace=wrap;html=1;fixedSize=1;" vertex="1" parent="WIyWlLk6GJQsqaUBKTNV-1">
          <mxGeometry x="1175" y="90" width="140" height="50" as="geometry" />
        </mxCell>
        <mxCell id="K_NiGyLxa0nPM3x3cjXr-108" value="" style="edgeStyle=orthogonalEdgeStyle;rounded=0;orthogonalLoop=1;jettySize=auto;html=1;" edge="1" parent="WIyWlLk6GJQsqaUBKTNV-1" source="K_NiGyLxa0nPM3x3cjXr-109" target="K_NiGyLxa0nPM3x3cjXr-114">
          <mxGeometry relative="1" as="geometry" />
        </mxCell>
        <mxCell id="K_NiGyLxa0nPM3x3cjXr-109" value="Ввод u" style="shape=parallelogram;perimeter=parallelogramPerimeter;whiteSpace=wrap;html=1;fixedSize=1;" vertex="1" parent="WIyWlLk6GJQsqaUBKTNV-1">
          <mxGeometry x="1180" y="160" width="130" height="50" as="geometry" />
        </mxCell>
        <mxCell id="K_NiGyLxa0nPM3x3cjXr-110" value="" style="edgeStyle=orthogonalEdgeStyle;rounded=0;orthogonalLoop=1;jettySize=auto;html=1;" edge="1" parent="WIyWlLk6GJQsqaUBKTNV-1" source="K_NiGyLxa0nPM3x3cjXr-114" target="K_NiGyLxa0nPM3x3cjXr-116">
          <mxGeometry relative="1" as="geometry" />
        </mxCell>
        <mxCell id="K_NiGyLxa0nPM3x3cjXr-111" value="Да" style="edgeLabel;html=1;align=center;verticalAlign=middle;resizable=0;points=[];" vertex="1" connectable="0" parent="K_NiGyLxa0nPM3x3cjXr-110">
          <mxGeometry x="0.66" y="1" relative="1" as="geometry">
            <mxPoint x="14" as="offset" />
          </mxGeometry>
        </mxCell>
        <mxCell id="K_NiGyLxa0nPM3x3cjXr-112" value="" style="edgeStyle=orthogonalEdgeStyle;rounded=0;orthogonalLoop=1;jettySize=auto;html=1;" edge="1" parent="WIyWlLk6GJQsqaUBKTNV-1" source="K_NiGyLxa0nPM3x3cjXr-114" target="K_NiGyLxa0nPM3x3cjXr-131">
          <mxGeometry relative="1" as="geometry" />
        </mxCell>
        <mxCell id="K_NiGyLxa0nPM3x3cjXr-113" value="Нет" style="edgeLabel;html=1;align=center;verticalAlign=middle;resizable=0;points=[];" vertex="1" connectable="0" parent="K_NiGyLxa0nPM3x3cjXr-112">
          <mxGeometry x="-0.71" y="1" relative="1" as="geometry">
            <mxPoint x="4" y="-9" as="offset" />
          </mxGeometry>
        </mxCell>
        <mxCell id="K_NiGyLxa0nPM3x3cjXr-114" value="i=1,i&amp;lt;(u+1)?" style="rhombus;whiteSpace=wrap;html=1;" vertex="1" parent="WIyWlLk6GJQsqaUBKTNV-1">
          <mxGeometry x="1180" y="230" width="130" height="60" as="geometry" />
        </mxCell>
        <mxCell id="K_NiGyLxa0nPM3x3cjXr-115" value="" style="edgeStyle=orthogonalEdgeStyle;rounded=0;orthogonalLoop=1;jettySize=auto;html=1;" edge="1" parent="WIyWlLk6GJQsqaUBKTNV-1" source="K_NiGyLxa0nPM3x3cjXr-116" target="K_NiGyLxa0nPM3x3cjXr-118">
          <mxGeometry relative="1" as="geometry" />
        </mxCell>
        <mxCell id="K_NiGyLxa0nPM3x3cjXr-116" value="Вывод &quot;Введите&amp;nbsp; &amp;nbsp; &amp;nbsp; цифру&quot;" style="shape=parallelogram;perimeter=parallelogramPerimeter;whiteSpace=wrap;html=1;fixedSize=1;" vertex="1" parent="WIyWlLk6GJQsqaUBKTNV-1">
          <mxGeometry x="1170" y="310" width="150" height="50" as="geometry" />
        </mxCell>
        <mxCell id="K_NiGyLxa0nPM3x3cjXr-117" value="" style="edgeStyle=orthogonalEdgeStyle;rounded=0;orthogonalLoop=1;jettySize=auto;html=1;" edge="1" parent="WIyWlLk6GJQsqaUBKTNV-1" source="K_NiGyLxa0nPM3x3cjXr-118" target="K_NiGyLxa0nPM3x3cjXr-122">
          <mxGeometry relative="1" as="geometry" />
        </mxCell>
        <mxCell id="K_NiGyLxa0nPM3x3cjXr-118" value="Ввод number" style="shape=parallelogram;perimeter=parallelogramPerimeter;whiteSpace=wrap;html=1;fixedSize=1;" vertex="1" parent="WIyWlLk6GJQsqaUBKTNV-1">
          <mxGeometry x="1170" y="380" width="150" height="50" as="geometry" />
        </mxCell>
        <mxCell id="K_NiGyLxa0nPM3x3cjXr-119" value="" style="edgeStyle=orthogonalEdgeStyle;rounded=0;orthogonalLoop=1;jettySize=auto;html=1;entryX=0.5;entryY=0;entryDx=0;entryDy=0;" edge="1" parent="WIyWlLk6GJQsqaUBKTNV-1" source="K_NiGyLxa0nPM3x3cjXr-122" target="K_NiGyLxa0nPM3x3cjXr-133">
          <mxGeometry relative="1" as="geometry">
            <mxPoint x="1245" y="550" as="targetPoint" />
          </mxGeometry>
        </mxCell>
        <mxCell id="K_NiGyLxa0nPM3x3cjXr-120" value="Да" style="edgeLabel;html=1;align=center;verticalAlign=middle;resizable=0;points=[];" vertex="1" connectable="0" parent="K_NiGyLxa0nPM3x3cjXr-119">
          <mxGeometry x="0.544" y="5" relative="1" as="geometry">
            <mxPoint x="10" as="offset" />
          </mxGeometry>
        </mxCell>
        <mxCell id="K_NiGyLxa0nPM3x3cjXr-121" value="" style="edgeStyle=orthogonalEdgeStyle;rounded=0;orthogonalLoop=1;jettySize=auto;html=1;" edge="1" parent="WIyWlLk6GJQsqaUBKTNV-1" source="K_NiGyLxa0nPM3x3cjXr-122" target="K_NiGyLxa0nPM3x3cjXr-130">
          <mxGeometry relative="1" as="geometry" />
        </mxCell>
        <mxCell id="K_NiGyLxa0nPM3x3cjXr-138" value="Нет" style="edgeLabel;html=1;align=center;verticalAlign=middle;resizable=0;points=[];" vertex="1" connectable="0" parent="K_NiGyLxa0nPM3x3cjXr-121">
          <mxGeometry x="-0.7583" y="2" relative="1" as="geometry">
            <mxPoint x="1" y="-9" as="offset" />
          </mxGeometry>
        </mxCell>
        <mxCell id="K_NiGyLxa0nPM3x3cjXr-122" value="&#39;1&#39;&amp;lt;=number&amp;lt;=&#39;9&#39;?" style="rhombus;whiteSpace=wrap;html=1;" vertex="1" parent="WIyWlLk6GJQsqaUBKTNV-1">
          <mxGeometry x="1180" y="460" width="130" height="70" as="geometry" />
        </mxCell>
        <mxCell id="K_NiGyLxa0nPM3x3cjXr-125" value="" style="edgeStyle=orthogonalEdgeStyle;rounded=0;orthogonalLoop=1;jettySize=auto;html=1;" edge="1" parent="WIyWlLk6GJQsqaUBKTNV-1" source="K_NiGyLxa0nPM3x3cjXr-126" target="K_NiGyLxa0nPM3x3cjXr-128">
          <mxGeometry relative="1" as="geometry" />
        </mxCell>
        <mxCell id="K_NiGyLxa0nPM3x3cjXr-126" value="Вывод &quot;Код символа&quot; code" style="shape=parallelogram;perimeter=parallelogramPerimeter;whiteSpace=wrap;html=1;fixedSize=1;" vertex="1" parent="WIyWlLk6GJQsqaUBKTNV-1">
          <mxGeometry x="1185" y="620" width="120" height="40" as="geometry" />
        </mxCell>
        <mxCell id="K_NiGyLxa0nPM3x3cjXr-127" style="edgeStyle=orthogonalEdgeStyle;rounded=0;orthogonalLoop=1;jettySize=auto;html=1;entryX=0;entryY=0.5;entryDx=0;entryDy=0;" edge="1" parent="WIyWlLk6GJQsqaUBKTNV-1" source="K_NiGyLxa0nPM3x3cjXr-128" target="K_NiGyLxa0nPM3x3cjXr-114">
          <mxGeometry relative="1" as="geometry">
            <Array as="points">
              <mxPoint x="1160" y="705" />
              <mxPoint x="1160" y="260" />
            </Array>
          </mxGeometry>
        </mxCell>
        <mxCell id="K_NiGyLxa0nPM3x3cjXr-128" value="i++" style="whiteSpace=wrap;html=1;" vertex="1" parent="WIyWlLk6GJQsqaUBKTNV-1">
          <mxGeometry x="1185" y="690" width="120" height="30" as="geometry" />
        </mxCell>
        <mxCell id="K_NiGyLxa0nPM3x3cjXr-135" style="edgeStyle=orthogonalEdgeStyle;rounded=0;orthogonalLoop=1;jettySize=auto;html=1;entryX=1;entryY=0.5;entryDx=0;entryDy=0;" edge="1" parent="WIyWlLk6GJQsqaUBKTNV-1" source="K_NiGyLxa0nPM3x3cjXr-130" target="K_NiGyLxa0nPM3x3cjXr-128">
          <mxGeometry relative="1" as="geometry">
            <Array as="points">
              <mxPoint x="1390" y="705" />
            </Array>
          </mxGeometry>
        </mxCell>
        <mxCell id="K_NiGyLxa0nPM3x3cjXr-130" value="Вывод&amp;nbsp; &quot;Это не цифра &quot;" style="shape=parallelogram;perimeter=parallelogramPerimeter;whiteSpace=wrap;html=1;fixedSize=1;" vertex="1" parent="WIyWlLk6GJQsqaUBKTNV-1">
          <mxGeometry x="1340" y="465" width="120" height="60" as="geometry" />
        </mxCell>
        <mxCell id="K_NiGyLxa0nPM3x3cjXr-131" value="4" style="ellipse;whiteSpace=wrap;html=1;" vertex="1" parent="WIyWlLk6GJQsqaUBKTNV-1">
          <mxGeometry x="1350" y="235" width="50" height="50" as="geometry" />
        </mxCell>
        <mxCell id="K_NiGyLxa0nPM3x3cjXr-134" style="edgeStyle=orthogonalEdgeStyle;rounded=0;orthogonalLoop=1;jettySize=auto;html=1;entryX=0.5;entryY=0;entryDx=0;entryDy=0;" edge="1" parent="WIyWlLk6GJQsqaUBKTNV-1" source="K_NiGyLxa0nPM3x3cjXr-133" target="K_NiGyLxa0nPM3x3cjXr-126">
          <mxGeometry relative="1" as="geometry" />
        </mxCell>
        <mxCell id="K_NiGyLxa0nPM3x3cjXr-133" value="code=number" style="rounded=0;whiteSpace=wrap;html=1;" vertex="1" parent="WIyWlLk6GJQsqaUBKTNV-1">
          <mxGeometry x="1185" y="552.5" width="120" height="45" as="geometry" />
        </mxCell>
        <mxCell id="K_NiGyLxa0nPM3x3cjXr-140" value="Да" style="edgeLabel;html=1;align=center;verticalAlign=middle;resizable=0;points=[];" vertex="1" connectable="0" parent="WIyWlLk6GJQsqaUBKTNV-1">
          <mxGeometry x="197.00285714285712" y="730.9999999999998" as="geometry">
            <mxPoint x="-1" y="-79" as="offset" />
          </mxGeometry>
        </mxCell>
        <mxCell id="K_NiGyLxa0nPM3x3cjXr-149" value="" style="edgeStyle=orthogonalEdgeStyle;rounded=0;orthogonalLoop=1;jettySize=auto;html=1;" edge="1" parent="WIyWlLk6GJQsqaUBKTNV-1" source="K_NiGyLxa0nPM3x3cjXr-146" target="K_NiGyLxa0nPM3x3cjXr-148">
          <mxGeometry relative="1" as="geometry" />
        </mxCell>
        <mxCell id="K_NiGyLxa0nPM3x3cjXr-146" value="Вывод &quot;Нет такой программы&quot;" style="shape=parallelogram;perimeter=parallelogramPerimeter;whiteSpace=wrap;html=1;fixedSize=1;" vertex="1" parent="WIyWlLk6GJQsqaUBKTNV-1">
          <mxGeometry x="63" y="800" width="136" height="60" as="geometry" />
        </mxCell>
        <mxCell id="K_NiGyLxa0nPM3x3cjXr-148" value="4" style="ellipse;whiteSpace=wrap;html=1;" vertex="1" parent="WIyWlLk6GJQsqaUBKTNV-1">
          <mxGeometry x="220" y="804.75" width="47" height="50.5" as="geometry" />
        </mxCell>
      </root>
    </mxGraphModel>
  </diagram>
</mxfile>
